#!OML:ASF F:\VICON\USERDATA\INSTALL\rory3\rory3.ASF
:FULLY-SPECIFIED
:DEGREES
1387
root -1.38552 18.5806 -3.14863 -1.53701 -2.98395 1.69085
lowerback 6.4088 -2.96145 -4.36006
upperback 1.06731 -4.23563 0.149442
thorax -2.1564 -2.08237 2.92813
lowerneck -14.1663 0.123233 -5.70826
upperneck 7.66941 0.32403 8.38699
head 4.58271 0.526144 3.57341
rclavicle -4.99369e-015 -3.04389e-015
rhumerus -45.2483 -23.7907 -39.0858
rradius 64.3423
rwrist -38.8554
rhand -23.4561 4.32654
rfingers 7.12502
rthumb 3.00266 -25.6321
lclavicle -4.99369e-015 -3.04389e-015
lhumerus -36.7757 -9.38591 66.1698
lradius 103.277
lwrist 8.23381
lhand -36.0919 9.56922
lfingers 7.12502
lthumb -9.19846 39.3486
rfemur -9.28412 18.9479 11.407
rtibia 28.9509
rfoot -18.2309 -17.3978
rtoes -4.20591
lfemur -2.03559 3.11645 -18.6902
ltibia 23.0573
lfoot -19.2355 7.4637
ltoes 7.25763
1388
root -1.44399 18.5652 -3.13927 -1.33995 -3.66771 1.17161
lowerback 6.39513 -2.70183 -3.63948
upperback 1.00587 -3.84002 0.224774
thorax -2.28655 -1.88617 2.57859
lowerneck -14.4096 0.10275 -5.76583
upperneck 7.74047 0.314096 8.38716
head 4.64495 0.524984 3.58582
rclavicle 3.12216e-014 -7.10655e-015
rhumerus -44.9959 -23.8107 -39.3848
rradius 64.4627
rwrist -38.5449
rhand -23.3155 4.38415
rfingers 7.12502
rthumb 3.13842 -25.5725
lclavicle 3.12216e-014 -7.10655e-015
lhumerus -37.3839 -8.79252 65.8023
lradius 101.197
lwrist 8.82061
lhand -36.657 9.5273
lfingers 7.12502
lthumb -9.74376 39.2819
rfemur -9.45239 19.3936 12.0956
rtibia 28.6204
rfoot -18.1073 -16.9712
rtoes -3.95844
lfemur -2.48574 3.66352 -17.8778
ltibia 23.7959
lfoot -19.4764 7.38266
ltoes 7.33878
1389
root -1.49697 18.5468 -3.11599 -1.38211 -4.27986 1.13611
lowerback 6.36776 -2.46009 -3.37781
upperback 1.01746 -3.50059 0.176427
thorax -2.30167 -1.71896 2.35634
lowerneck -14.2954 0.0980001 -5.7655
upperneck 7.54302 0.330492 8.23347
head 4.56408 0.519509 3.53446
rclavicle -2.95987e-014 5.51627e-015
rhumerus -44.6556 -23.6474 -39.6797
rradius 64.5542
rwrist -38.2961
rhand -23.2276 4.20853
rfingers 7.12502
rthumb 3.22333 -25.7469
lclavicle -2.95987e-014 5.51627e-015
lhumerus -38.0927 -7.92794 65.4432
lradius 99.1934
lwrist 9.29078
lhand -37.5449 9.68029
lfingers 7.12502
lthumb -10.6003 39.3929
rfemur -9.22578 19.5456 12.2815
rtibia 28.2856
rfoot -18.1085 -16.6774
rtoes -4.30586
lfemur -2.71859 4.21286 -17.6167
ltibia 24.6998
lfoot -19.8228 7.27588
ltoes 7.26162
1390
root -1.55243 18.5294 -3.09265 -1.43602 -4.708 0.991962
lowerback 6.41681 -2.29276 -3.05327
upperback 1.00221 -3.25809 0.167136
thorax -2.37899 -1.59896 2.15056
lowerneck -14.0696 0.141063 -5.69596
upperneck 7.24576 0.402153 8.03804
head 4.43066 0.538056 3.46045
rclavicle 2.93937e-014 -5.26779e-015
rhumerus -44.3407 -23.2861 -40.0034
rradius 64.7002
rwrist -38.1566
rhand -23.5728 3.9016
rfingers 7.12502
rthumb 2.88995 -26.0586
lclavicle 2.93937e-014 -5.26779e-015
lhumerus -38.8483 -6.86907 65.0391
lradius 97.2625
lwrist 9.58404
lhand -37.804 9.86051
lfingers 7.12502
lthumb -10.8502 39.5602
rfemur -8.87175 19.6127 12.6156
rtibia 27.9229
rfoot -18.2803 -16.4263
rtoes -4.12759
lfemur -2.99387 4.70283 -17.2164
ltibia 25.6409
lfoot -20.0693 7.18179
ltoes 7.26492
1391
root -1.60983 18.5139 -3.07909 -1.30855 -5.12368 0.567034
lowerback 6.41374 -2.13993 -2.46937
upperback 1.0233 -3.01349 0.196152
thorax -2.39835 -1.48159 1.83485
lowerneck -14.1566 0.183411 -5.53489
upperneck 7.00407 0.455017 7.93838
head 4.3674 0.562505 3.40445
rclavicle -4.57329e-014 -2.48481e-015
rhumerus -43.9693 -23.0568 -40.4146
rradius 64.8948
rwrist -38.0486
rhand -24.0837 3.87002
rfingers 7.12502
rthumb 2.39654 -26.0963
lclavicle -4.57329e-014 -2.48481e-015
lhumerus -39.3304 -5.76297 64.4938
lradius 95.3497
lwrist 9.84702
lhand -37.8216 9.60146
lfingers 7.12502
lthumb -10.8672 39.3003
rfemur -8.80611 19.7729 13.2021
rtibia 27.5573
rfoot -18.3853 -15.9976
rtoes -3.4897
lfemur -3.45363 5.16841 -16.5174
ltibia 26.5266
lfoot -20.181 7.21154
ltoes 7.33519
1392
root -1.66583 18.5 -3.06558 -1.21822 -5.55384 0.211539
lowerback 6.42079 -1.99001 -1.97357
upperback 1.06605 -2.77943 0.206874
thorax -2.39266 -1.36934 1.54964
lowerneck -14.3464 0.239783 -5.39311
upperneck 6.92478 0.521321 7.88152
head 4.36977 0.598599 3.36935
rclavicle -5.90763e-015 3.926e-015
rhumerus -43.4794 -22.8891 -40.8559
rradius 64.9985
rwrist -37.8224
rhand -24.3721 4.02174
rfingers 7.12502
rthumb 2.11798 -25.9475
lclavicle -5.90763e-015 3.926e-015
lhumerus -39.7665 -4.57339 63.9014
lradius 93.5282
lwrist 9.87875
lhand -37.7017 10.1353
lfingers 7.12502
lthumb -10.7515 39.8402
rfemur -8.75664 19.8472 13.7088
rtibia 27.213
rfoot -18.375 -15.3376
rtoes -3.04729
lfemur -3.84721 5.58029 -15.9014
ltibia 27.3873
lfoot -20.3344 7.27134
ltoes 6.40533
1393
root -1.72074 18.492 -3.05192 -1.18998 -5.99771 -0.0826856
lowerback 6.57565 -1.84994 -1.59188
upperback 1.04543 -2.56847 0.250033
thorax -2.52357 -1.26546 1.37025
lowerneck -14.4217 0.310181 -5.37498
upperneck 6.92596 0.618537 7.85106
head 4.37565 0.646444 3.36497
rclavicle 2.61681e-014 -1.09332e-015
rhumerus -42.9375 -22.4739 -41.2331
rradius 65.0229
rwrist -37.684
rhand -24.2681 4.1648
rfingers 7.12502
rthumb 2.21845 -25.8034
lclavicle 2.61681e-014 -1.09332e-015
lhumerus -40.3031 -3.30533 63.3773
lradius 91.7539
lwrist 9.8121
lhand -37.665 10.7218
lfingers 7.12502
lthumb -10.7162 40.4285
rfemur -8.69499 19.7125 14.1797
rtibia 26.9644
rfoot -18.2346 -14.8389
rtoes -3.0226
lfemur -4.14099 6.04196 -15.3341
ltibia 28.1608
lfoot -20.371 7.30805
ltoes 3.98511
1394
root -1.77954 18.4901 -3.04009 -1.22079 -6.39499 -0.305158
lowerback 6.78168 -1.7194 -1.34463
upperback 1.0494 -2.37912 0.28586
thorax -2.64943 -1.17188 1.26032
lowerneck -14.3557 0.375731 -5.35815
upperneck 6.72946 0.713833 7.81954
head 4.29809 0.689227 3.35617
rclavicle 4.15584e-015 4.57205e-015
rhumerus -42.4317 -21.9789 -41.5739
rradius 65.1511
rwrist -37.6174
rhand -23.7495 4.30044
rfingers 7.12502
rthumb 2.7193 -25.662
lclavicle 4.15584e-015 4.57205e-015
lhumerus -40.7502 -2.08309 62.8568
lradius 90.0633
lwrist 9.83075
lhand -38.2067 10.5852
lfingers 7.12502
lthumb -11.2387 40.2641
rfemur -8.62439 19.5941 14.6296
rtibia 26.8375
rfoot -18.0252 -14.6247
rtoes -3.07328
lfemur -4.29699 6.47824 -14.8207
ltibia 28.7988
lfoot -20.3282 7.25574
ltoes 2.18041
1395
root -1.83777 18.4899 -3.02531 -1.32134 -6.70246 -0.351187
lowerback 6.8516 -1.60848 -1.29899
upperback 1.16116 -2.22892 0.273333
thorax -2.57994 -1.0989 1.20884
lowerneck -14.1944 0.42309 -5.26874
upperneck 6.31343 0.78453 7.72208
head 4.14014 0.714606 3.30904
rclavicle -1.10947e-014 4.37326e-015
rhumerus -41.8401 -21.6137 -41.9743
rradius 65.2991
rwrist -37.5845
rhand -23.8025 4.39343
rfingers 7.12502
rthumb 2.66809 -25.5696
lclavicle -1.10947e-014 4.37326e-015
lhumerus -41.0738 -0.867664 62.3766
lradius 88.4985
lwrist 10.0595
lhand -38.95 9.9341
lfingers 7.12502
lthumb -11.9554 39.5727
rfemur -8.48361 19.4829 14.9122
rtibia 26.8051
rfoot -17.935 -14.366
rtoes -3.56103
lfemur -4.33934 6.74886 -14.5196
ltibia 29.3367
lfoot -20.3226 7.23394
ltoes 1.45217
1396
root -1.88955 18.4932 -3.01171 -1.43754 -6.92263 -0.336879
lowerback 6.95023 -1.50926 -1.23079
upperback 1.28739 -2.0945 0.204471
thorax -2.51371 -1.03404 1.08869
lowerneck -14.0538 0.445104 -5.23217
upperneck 5.92471 0.819312 7.73948
head 3.99638 0.728291 3.30468
rclavicle -2.32205e-014 6.85807e-015
rhumerus -41.3034 -21.3073 -42.3711
rradius 65.4582
rwrist -37.5454
rhand -23.9402 4.39606
rfingers 7.12502
rthumb 2.53511 -25.5686
lclavicle -2.32205e-014 6.85807e-015
lhumerus -41.3726 0.303007 61.9131
lradius 87.0805
lwrist 10.4077
lhand -39.1193 9.59857
lfingers 7.12502
lthumb -12.1187 39.2276
rfemur -8.33185 19.3403 15.1122
rtibia 26.8369
rfoot -18.0127 -13.9338
rtoes -3.33099
lfemur -4.35356 6.78631 -14.3377
ltibia 29.8096
lfoot -20.3028 7.46064
ltoes 0.463419
1397
root -1.94172 18.4979 -3.00172 -1.57918 -7.07931 -0.366742
lowerback 7.26712 -1.4093 -1.17722
upperback 1.30635 -1.96185 0.18666
thorax -2.6767 -0.967092 1.03773
lowerneck -13.8901 0.4633 -5.22276
upperneck 5.7059 0.84595 7.7474
head 3.90145 0.737482 3.30301
rclavicle -1.98163e-015 9.93923e-017
rhumerus -40.9242 -20.6623 -42.6607
rradius 65.6641
rwrist -37.6107
rhand -23.9548 4.35272
rfingers 7.12502
rthumb 2.52106 -25.6121
lclavicle -1.98163e-015 9.93923e-017
lhumerus -41.7455 1.43509 61.5423
lradius 85.7072
lwrist 10.7343
lhand -39.1463 10.0006
lfingers 7.12502
lthumb -12.1447 39.6281
rfemur -8.15877 19.4821 15.4029
rtibia 26.9098
rfoot -18.1663 -13.8125
rtoes -2.7345
lfemur -4.31239 6.69109 -14.1006
ltibia 30.2131
lfoot -20.2218 7.6213
ltoes 0.0369884
1398
root -1.99802 18.4981 -2.99429 -1.77581 -7.30467 -0.274427
lowerback 7.64873 -1.29599 -1.35835
upperback 1.30382 -1.83118 0.167274
thorax -2.89018 -0.898555 1.11785
lowerneck -13.7705 0.500488 -5.14817
upperneck 5.59825 0.890055 7.67249
head 3.84686 0.753762 3.26782
rclavicle 9.58515e-015 2.78299e-015
rhumerus -40.4889 -19.946 -42.9757
rradius 65.7732
rwrist -37.6057
rhand -23.9339 4.46712
rfingers 7.12502
rthumb 2.54116 -25.4975
lclavicle 9.58515e-015 2.78299e-015
lhumerus -42.1006 2.63627 61.1817
lradius 84.2845
lwrist 11.0106
lhand -39.1992 10.942
lfingers 7.12502
lthumb -12.1957 40.5664
rfemur -7.98778 19.7008 15.5745
rtibia 27.0004
rfoot -18.236 -13.829
rtoes -2.56622
lfemur -4.24718 6.7102 -13.9778
ltibia 30.5993
lfoot -19.9931 7.87087
ltoes -0.730761
1399
root -2.0509 18.5008 -2.98414 -1.96991 -7.49471 -0.0543608
lowerback 7.80241 -1.19973 -1.6059
upperback 1.37894 -1.72911 0.0543187
thorax -2.89715 -0.846298 1.133
lowerneck -13.526 0.541184 -4.97764
upperneck 5.40209 0.920409 7.61304
head 3.74677 0.763335 3.21839
rclavicle -2.0655e-014 -7.95139e-016
rhumerus -39.9727 -19.626 -43.2943
rradius 65.6727
rwrist -37.3338
rhand -23.6925 4.77021
rfingers 7.12502
rthumb 2.7743 -25.1915
lclavicle -2.0655e-014 -7.95139e-016
lhumerus -42.3395 3.81111 60.7716
lradius 82.864
lwrist 11.2491
lhand -39.0358 11.6125
lfingers 7.12502
lthumb -12.0381 41.2463
rfemur -7.87263 19.506 15.533
rtibia 27.1203
rfoot -18.2699 -13.457
rtoes -2.4622
lfemur -4.23578 6.72544 -14.0034
ltibia 31.0218
lfoot -19.7423 8.04569
ltoes -1.68026
1400
root -2.10247 18.5055 -2.97393 -2.02458 -7.55568 0.0948677
lowerback 7.82705 -1.14275 -1.8099
upperback 1.3733 -1.67247 0.0027269
thorax -2.9141 -0.816218 1.18928
lowerneck -13.1435 0.572912 -4.86378
upperneck 5.24583 0.945942 7.5188
head 3.63679 0.7652 3.16602
rclavicle 2.48916e-014 -3.97569e-015
rhumerus -39.5202 -19.1583 -43.5416
rradius 65.6582
rwrist -37.1517
rhand -23.7906 4.83855
rfingers 7.12502
rthumb 2.67958 -25.1244
lclavicle 2.48916e-014 -3.97569e-015
lhumerus -42.6819 4.90014 60.458
lradius 81.4926
lwrist 11.4587
lhand -38.8512 11.0092
lfingers 7.12502
lthumb -11.8602 40.6533
rfemur -7.91319 19.1737 15.5135
rtibia 27.2596
rfoot -18.2729 -12.9847
rtoes -2.29249
lfemur -4.40895 6.75191 -13.9509
ltibia 31.4722
lfoot -19.4047 8.07009
ltoes -2.46558
